<svg width="21" height="21" viewBox="0 0 21 21" fill="none" xmlns="http://www.w3.org/2000/svg">
<g clip-path="url(#clip0_0_70)">
<path d="M10.8822 0.682983C5.3602 0.682983 0.882202 5.15998 0.882202 10.683C0.882202 14.92 3.5182 18.538 7.2382 19.995C7.1502 19.204 7.0712 17.99 7.2732 17.127C7.4552 16.347 8.4452 12.157 8.4452 12.157C8.4452 12.157 8.1462 11.557 8.1462 10.671C8.1462 9.28098 8.9522 8.24298 9.9562 8.24298C10.8082 8.24298 11.2202 8.88298 11.2202 9.65098C11.2202 10.509 10.6752 11.791 10.3922 12.981C10.1562 13.976 10.8922 14.788 11.8722 14.788C13.6502 14.788 15.0162 12.914 15.0162 10.208C15.0162 7.81498 13.2962 6.13998 10.8392 6.13998C7.9942 6.13998 6.3242 8.27498 6.3242 10.48C6.3242 11.339 6.6552 12.261 7.0692 12.761C7.10464 12.7989 7.12962 12.8454 7.14172 12.8959C7.15381 12.9464 7.1526 12.9991 7.1382 13.049L6.8602 14.182C6.8162 14.365 6.7152 14.405 6.5252 14.316C5.2762 13.735 4.4952 11.909 4.4952 10.442C4.4952 7.28798 6.7872 4.38998 11.1032 4.38998C14.5722 4.38998 17.2682 6.86298 17.2682 10.166C17.2682 13.613 15.0952 16.386 12.0782 16.386C11.0652 16.386 10.1132 15.861 9.7872 15.238L9.1642 17.616C8.9382 18.485 8.3292 19.574 7.9202 20.237C8.8572 20.527 9.8512 20.683 10.8822 20.683C16.4042 20.683 20.8822 16.206 20.8822 10.683C20.8822 5.15998 16.4042 0.682983 10.8822 0.682983Z" fill="white"/>
</g>
<defs>
<clipPath id="clip0_0_70">
<rect width="20" height="20" fill="white" transform="translate(0.882202 0.682983)"/>
</clipPath>
</defs>
</svg>
