<svg width="22" height="21" viewBox="0 0 22 21" fill="none" xmlns="http://www.w3.org/2000/svg">
<g clip-path="url(#clip0_0_72)">
<path d="M11.2152 2.48498C13.8852 2.48498 14.2022 2.49498 15.2572 2.54398C17.9672 2.66698 19.2332 3.95298 19.3572 6.64298C19.4052 7.69698 19.4142 8.01298 19.4142 10.683C19.4142 13.355 19.4042 13.671 19.3562 14.725C19.2322 17.412 17.9702 18.7 15.2572 18.824C14.2022 18.872 13.8872 18.882 11.2152 18.882C8.54519 18.882 8.22919 18.872 7.17519 18.824C4.45819 18.7 3.19919 17.408 3.07519 14.724C3.02719 13.67 3.01719 13.354 3.01719 10.683C3.01719 8.01298 3.02719 7.69698 3.07519 6.64298C3.19919 3.95298 4.46219 2.66598 7.17519 2.54298C8.22919 2.49498 8.54519 2.48498 11.2152 2.48498ZM11.2152 0.682983C8.50019 0.682983 8.16019 0.694983 7.09319 0.742983C3.46119 0.909983 1.44219 2.92498 1.27619 6.55998C1.22719 7.62698 1.21619 7.96698 1.21619 10.683C1.21619 13.399 1.22719 13.74 1.27619 14.806C1.44219 18.438 3.45719 20.456 7.09219 20.623C8.16019 20.671 8.50019 20.683 11.2152 20.683C13.9312 20.683 14.2722 20.671 15.3392 20.623C18.9672 20.456 20.9902 18.441 21.1552 14.806C21.2042 13.74 21.2152 13.399 21.2152 10.683C21.2152 7.96698 21.2042 7.62698 21.1552 6.56098C20.9922 2.93198 18.9752 0.910983 15.3402 0.742983C14.2722 0.692983 13.9312 0.682983 11.2152 0.682983ZM11.2152 5.54798C9.8533 5.54798 8.54719 6.08899 7.58419 7.05199C6.62119 8.01499 6.08019 9.3211 6.08019 10.683C6.08019 12.0449 6.62119 13.351 7.58419 14.314C8.54719 15.277 9.8533 15.818 11.2152 15.818C12.5771 15.818 13.8832 15.277 14.8462 14.314C15.8092 13.351 16.3502 12.0449 16.3502 10.683C16.3502 9.3211 15.8092 8.01499 14.8462 7.05199C13.8832 6.08899 12.5771 5.54798 11.2152 5.54798ZM11.2152 14.016C10.3312 14.016 9.48346 13.6648 8.8584 13.0398C8.23334 12.4147 7.88219 11.5669 7.88219 10.683C7.88219 9.79902 8.23334 8.95126 8.8584 8.3262C9.48346 7.70114 10.3312 7.34998 11.2152 7.34998C12.0992 7.34998 12.9469 7.70114 13.572 8.3262C14.197 8.95126 14.5482 9.79902 14.5482 10.683C14.5482 11.5669 14.197 12.4147 13.572 13.0398C12.9469 13.6648 12.0992 14.016 11.2152 14.016ZM16.5542 4.14598C16.3966 4.14592 16.2405 4.17689 16.0949 4.23714C15.9493 4.29738 15.817 4.38572 15.7055 4.4971C15.594 4.60849 15.5056 4.74074 15.4452 4.8863C15.3849 5.03187 15.3538 5.1879 15.3537 5.34548C15.3536 5.50307 15.3846 5.65913 15.4448 5.80474C15.5051 5.95036 15.5934 6.08268 15.7048 6.19416C15.8162 6.30563 15.9484 6.39408 16.094 6.45445C16.2396 6.51481 16.3956 6.54592 16.5532 6.54598C16.8714 6.54598 17.1767 6.41956 17.4017 6.19451C17.6268 5.96947 17.7532 5.66424 17.7532 5.34598C17.7532 5.02772 17.6268 4.7225 17.4017 4.49746C17.1767 4.27241 16.8714 4.14598 16.5532 4.14598H16.5542Z" fill="white"/>
</g>
<defs>
<clipPath id="clip0_0_72">
<rect width="21" height="20" fill="white" transform="translate(0.882202 0.682983)"/>
</clipPath>
</defs>
</svg>
