<svg width="21" height="17" viewBox="0 0 21 17" fill="none" xmlns="http://www.w3.org/2000/svg">
<path d="M20.8822 2.60699C20.1333 2.93896 19.3388 3.15672 18.5252 3.25299C19.3824 2.74061 20.0236 1.93369 20.3292 0.982987C19.5237 1.46105 18.6423 1.7979 17.7232 1.97899C17.3395 1.56925 16.8756 1.24278 16.3604 1.01984C15.8452 0.796892 15.2896 0.682236 14.7282 0.682987C12.0792 0.682987 10.1332 3.15499 10.7312 5.72099C9.09979 5.63935 7.50376 5.21549 6.04679 4.47692C4.58981 3.73836 3.30447 2.7016 2.27423 1.43399C1.74997 2.33746 1.58948 3.40669 1.82539 4.42426C2.0613 5.44183 2.6759 6.33136 3.54423 6.91199C2.89259 6.89207 2.25517 6.71652 1.68523 6.39999C1.64023 8.30099 3.00223 10.08 4.97523 10.475C4.37094 10.6391 3.73717 10.663 3.12223 10.545C3.38412 11.3606 3.89457 12.0739 4.58208 12.585C5.26959 13.096 6.09972 13.3793 6.95623 13.395C5.23639 14.7441 3.05147 15.3555 0.881226 15.095C2.75751 16.3004 4.94111 16.9402 7.17123 16.938C14.7892 16.938 19.0932 10.504 18.8332 4.73299C19.6365 4.1521 20.33 3.43289 20.8812 2.60899L20.8822 2.60699Z" fill="white"/>
</svg>
