<svg width="22" height="21" viewBox="0 0 22 21" fill="none" xmlns="http://www.w3.org/2000/svg">
<g clip-path="url(#clip0_0_67)">
<path d="M11.2142 0.682983C5.69223 0.682983 1.21423 5.16098 1.21423 10.683C1.21423 16.206 5.69223 20.683 11.2142 20.683C16.7372 20.683 21.2142 16.206 21.2142 10.683C21.2142 5.16098 16.7372 0.682983 11.2142 0.682983ZM14.9152 14.76C13.1632 14.88 9.26223 14.88 7.51323 14.76C5.61623 14.63 5.39523 13.701 5.38123 10.683C5.39523 7.65898 5.61823 6.73598 7.51323 6.60598C9.26223 6.48598 13.1642 6.48598 14.9152 6.60598C16.8132 6.73598 17.0332 7.66498 17.0482 10.683C17.0332 13.707 16.8102 14.63 14.9152 14.76ZM9.54823 8.73098L13.6452 10.68L9.54823 12.635V8.73098Z" fill="white"/>
</g>
<defs>
<clipPath id="clip0_0_67">
<rect width="21" height="20" fill="white" transform="translate(0.881226 0.682983)"/>
</clipPath>
</defs>
</svg>
