<svg width="21" height="21" viewBox="0 0 21 21" fill="none" xmlns="http://www.w3.org/2000/svg">
<g clip-path="url(#clip0_0_65)">
<path d="M19.7772 0.682983H1.98523C1.37523 0.682983 0.881226 1.17698 0.881226 1.78698V19.58C0.881226 20.189 1.37523 20.683 1.98523 20.683H11.5652V12.938H8.95723V9.91998H11.5632V7.69298C11.5632 5.10998 13.1412 3.70298 15.4462 3.70298C16.5502 3.70298 17.4982 3.78498 17.7752 3.82198V6.52198H16.1772C14.9232 6.52198 14.6812 7.11898 14.6812 7.99198V9.91998H17.6702L17.2802 12.938H14.6802V20.683H19.7782C20.3862 20.683 20.8802 20.189 20.8802 19.579V1.78698C20.8812 1.17698 20.3872 0.682983 19.7772 0.682983Z" fill="white"/>
</g>
<defs>
<clipPath id="clip0_0_65">
<rect width="20" height="20" fill="white" transform="translate(0.881226 0.682983)"/>
</clipPath>
</defs>
</svg>
